<svg width="60" height="40" viewBox="0 0 54 36" fill="none" xmlns="http://www.w3.org/2000/svg"><g clip-path="url(#flag-gb)"><path d="M54 0V35.99L53.99 36H0V0H54Z" fill="#1E3A8A"></path> <path d="M28.47 21.2601L28.44 21.2801L26.8 22.3801L25.56 23.2201L23.4 24.6801L21.24 26.1301L6.60999 36.0001H4.03999L21.24 24.3901L22.18 23.7601L23.4 22.9301L25.38 21.6001L25.51 21.5101L25.56 21.4801L27.66 20.0601L28.44 21.2201L28.47 21.2601Z" fill="#F5F5F5"></path> <path d="M27.66 20.0602L25.56 21.4802L25.51 21.5102L25.38 21.6002L23.4 22.9302L22.18 23.7602L21.24 24.3902L4.04 36.0002H0V35.6802L17.67 23.7602L20.87 21.6002L23.26 19.9902L23.4 19.8902L24.07 19.4402L24.55 19.1202L25.89 18.2102L26.25 17.9702L26.8 18.7902L27.66 20.0602Z" fill="#EF4444"></path> <path d="M26.25 17.97L25.89 18.21L24.55 19.12L24.07 19.44L23.4 19.89L23.26 19.99L20.87 21.6L17.67 23.76L0 35.68V31.77L11.88 23.76L15.08 21.6L18.29 19.44L20.37 18.04L21.66 17.17L22.56 16.56L23.4 15.99L23.91 15.65L24.44 15.29L25.3 16.56L25.33 16.61L26.15 17.82L26.25 17.97Z" fill="#F5F5F5"></path> <path d="M54 0.120117V4.03012L41.84 12.2401L38.63 14.4001L35.43 16.5601L33.24 18.0401L31.96 18.9001L31.16 19.4401L30.6 19.8201L29.7 20.4301L29.37 20.6501L28.82 19.8301L28.56 19.4401L27.56 17.9601L29.06 16.9501L29.64 16.5601L30.34 16.0801L30.6 15.9101L32.84 14.4001L36.04 12.2401L54 0.120117Z" fill="#F5F5F5"></path> <path d="M54.02 0.11L54 0.12L36.04 12.24L32.84 14.4L30.6 15.91L30.34 16.08L29.64 16.56L29.06 16.95L27.56 17.96L27.46 17.81L26.81 16.85L26.15 15.87L28.09 14.56L28.44 14.33L30.6 12.87L31.53 12.24L32.76 11.41L49.67 0H53.95L54 0.08L54.02 0.11Z" fill="#EF4444"></path> <path d="M49.67 0L32.76 11.41L31.53 12.24L30.6 12.87L28.44 14.33L28.09 14.56L26.15 15.87L25.56 15L25.34 14.68L25.56 14.53L26.8 13.69L28.44 12.59L30.6 11.13L32.76 9.67L47.1 0H49.67Z" fill="#F5F5F5"></path> <path d="M52.8 35.9998H47L32.76 26.3998L30.6 24.9398L28.44 23.4898L26.8 22.3798L25.56 21.5398L25.51 21.5098L25.14 21.2598L25.56 20.6398L26.8 18.7898L26.95 18.5698L28.44 19.5698L28.82 19.8298L29.7 20.4298L30.6 21.0298L31.44 21.5998L32.76 22.4898L34.65 23.7598L52.8 35.9998Z" fill="#F5F5F5"></path> <path d="M54 33.77V35.99L53.99 36H52.8L34.65 23.76L32.76 22.49L31.44 21.6L30.6 21.03L29.7 20.43L28.82 19.83L28.44 19.57L26.95 18.57L27.46 17.81L28.36 16.48L28.44 16.53L28.48 16.56L29.06 16.95L31.96 18.9L32.75 19.44L35.95 21.6L39.16 23.76L54 33.77Z" fill="#EF4444"></path> <path d="M54 32.04V33.77L39.16 23.76L35.95 21.6L32.75 19.44L31.96 18.9L29.06 16.95L28.48 16.56L28.44 16.53L28.36 16.48L28.44 16.36L29.17 15.29L30.34 16.08L30.6 16.25L31.05 16.56L33.24 18.04L35.32 19.44L38.53 21.6L41.73 23.76L54 32.04Z" fill="#F5F5F5"></path> <path d="M25.05 19.4498L24.24 20.6498L23.4 20.0798L23.26 19.9898L22.45 19.4398L20.37 18.0398L18.18 16.5598L14.98 14.3998L11.77 12.2398L0 4.29982V2.56982L14.35 12.2398L17.56 14.3998L20.76 16.5598L21.66 17.1698L24.55 19.1198L25.04 19.4398L25.05 19.4498Z" fill="#F5F5F5"></path> <path d="M26.46 17.37L26.15 17.82L25.89 18.21L25.06 19.44L25.05 19.45L25.04 19.44L24.55 19.12L21.66 17.17L20.76 16.56L17.56 14.4L14.35 12.24L0 2.57V0H0.7L18.85 12.24L21.24 13.85L22.06 14.4L23.4 15.31L23.91 15.65L25.26 16.56L25.33 16.61L26.46 17.37Z" fill="#EF4444"></path> <path d="M28.27 14.68L26.81 16.85L26.46 17.37L25.33 16.61L25.26 16.56L23.91 15.65L23.4 15.31L22.06 14.4L21.24 13.85L18.85 12.24L0.699997 0H6.5L21.24 9.94L23.4 11.4L25.56 12.85L26.8 13.69L28.09 14.56L28.27 14.68Z" fill="#F5F5F5"></path> <path fill-rule="evenodd" clip-rule="evenodd" d="M54 13.4V22.6H31.6V36H22.4V22.6H0V13.4H22.4V0H31.6V13.4H54Z" fill="#EF4444"></path> <path d="M32.6 12.4V0H30.6V14.4H54V12.4H32.6ZM21.4 0V12.4H0V14.4H23.4V0H21.4ZM0 21.6V23.6H21.4V36H23.4V21.6H0ZM30.6 21.6V36H32.6V23.6H54V21.6H30.6Z" fill="#F5F5F5"></path></g><defs><clipPath id="flag-gb"><rect width="54" height="36" rx="8px" fill="white" /></clipPath></defs></svg>