<svg width="36" height="36" viewBox="0 0 36 36" fill="none" xmlns="http://www.w3.org/2000/svg">
<path d="M35.445 7C34.752 5.809 33.477 5 32 5H18V7H35.445ZM0 25H36V27H0V25ZM18 17H36V19H18V17ZM18 13H36V15H18V13ZM0 21H36V23H0V21ZM4 31H32C33.477 31 34.752 30.191 35.445 29H0.555C1.248 30.191 2.523 31 4 31ZM18 9H36V11H18V9Z" fill="#B22334" style="fill:#B22334;fill:color(display-p3 0.6980 0.1373 0.2039);fill-opacity:1;"/>
<path d="M0.068 27.679C0.085 27.772 0.104 27.865 0.127 27.956C0.153 28.057 0.185 28.154 0.219 28.252C0.308 28.511 0.416 28.761 0.552 28.995L0.555 29H35.445L35.447 28.996C35.582 28.763 35.69 28.513 35.779 28.255C35.813 28.156 35.846 28.057 35.872 27.954C35.895 27.864 35.914 27.772 35.931 27.679C35.972 27.459 36 27.233 36 27H0C0 27.233 0.028 27.458 0.068 27.679ZM0 23H36V25H0V23ZM0 19V21H36V19H18H0ZM18 15H36V17H18V15ZM18 11H36V13H18V11ZM0 9C0 8.767 0.03 8.543 0.068 8.321C0.028 8.542 0 8.767 0 9ZM0.128 8.044C0.153 7.942 0.188 7.845 0.22 7.747C0.186 7.845 0.154 7.943 0.128 8.044ZM18 9H36C36 8.767 35.972 8.541 35.931 8.32C35.914 8.228 35.896 8.136 35.872 8.046C35.845 7.943 35.813 7.843 35.778 7.744C35.689 7.486 35.581 7.237 35.446 7.004C35.447 7.003 35.446 7.001 35.445 7H18V9Z" fill="#EEEEEE" style="fill:#EEEEEE;fill:color(display-p3 0.9333 0.9333 0.9333);fill-opacity:1;"/>
<path d="M18 5H4C1.791 5 0 6.791 0 9V19H18V5Z" fill="#3C3B6E" style="fill:#3C3B6E;fill:color(display-p3 0.2353 0.2314 0.4314);fill-opacity:1;"/>
<path d="M2.00098 7.726L2.61898 8.175L2.38298 8.9L2.99998 8.452L3.61798 8.9L3.38198 8.175L3.99998 7.726H3.23598L2.99998 7L2.76498 7.726H2.00098ZM4.00098 9.726L4.61898 10.175L4.38298 10.9L4.99998 10.452L5.61798 10.9L5.38198 10.175L5.99998 9.726H5.23598L4.99998 9L4.76498 9.726H4.00098ZM8.00098 9.726L8.61898 10.175L8.38298 10.9L8.99998 10.452L9.61798 10.9L9.38198 10.175L9.99998 9.726H9.23598L8.99998 9L8.76498 9.726H8.00098ZM12.001 9.726L12.619 10.175L12.383 10.9L13 10.452L13.618 10.9L13.382 10.175L14 9.726H13.236L13 9L12.765 9.726H12.001ZM4.00098 13.726L4.61898 14.175L4.38298 14.9L4.99998 14.452L5.61798 14.9L5.38198 14.175L5.99998 13.726H5.23598L4.99998 13L4.76498 13.726H4.00098ZM8.00098 13.726L8.61898 14.175L8.38298 14.9L8.99998 14.452L9.61798 14.9L9.38198 14.175L9.99998 13.726H9.23598L8.99998 13L8.76498 13.726H8.00098ZM12.001 13.726L12.619 14.175L12.383 14.9L13 14.452L13.618 14.9L13.382 14.175L14 13.726H13.236L13 13L12.765 13.726H12.001ZM6.00098 7.726L6.61898 8.175L6.38298 8.9L6.99998 8.452L7.61798 8.9L7.38198 8.175L7.99998 7.726H7.23598L6.99998 7L6.76498 7.726H6.00098ZM10.001 7.726L10.619 8.175L10.383 8.9L11 8.452L11.618 8.9L11.382 8.175L12 7.726H11.236L11 7L10.765 7.726H10.001ZM14.001 7.726L14.619 8.175L14.383 8.9L15 8.452L15.618 8.9L15.382 8.175L16 7.726H15.236L15 7L14.765 7.726H14.001ZM2.00098 11.726L2.61898 12.175L2.38298 12.9L2.99998 12.452L3.61798 12.9L3.38198 12.175L3.99998 11.726H3.23598L2.99998 11L2.76498 11.726H2.00098ZM6.38298 12.9L6.99998 12.452L7.61798 12.9L7.38198 12.175L7.99998 11.726H7.23598L6.99998 11L6.76498 11.726H6.00098L6.61898 12.175L6.38298 12.9ZM10.001 11.726L10.619 12.175L10.383 12.9L11 12.452L11.618 12.9L11.382 12.175L12 11.726H11.236L11 11L10.765 11.726H10.001ZM14.001 11.726L14.619 12.175L14.383 12.9L15 12.452L15.618 12.9L15.382 12.175L16 11.726H15.236L15 11L14.765 11.726H14.001ZM2.00098 15.726L2.61898 16.175L2.38298 16.9L2.99998 16.452L3.61798 16.9L3.38198 16.175L3.99998 15.726H3.23598L2.99998 15L2.76498 15.726H2.00098ZM6.38298 16.9L6.99998 16.452L7.61798 16.9L7.38198 16.175L7.99998 15.726H7.23598L6.99998 15L6.76498 15.726H6.00098L6.61898 16.175L6.38298 16.9ZM10.001 15.726L10.619 16.175L10.383 16.9L11 16.452L11.618 16.9L11.382 16.175L12 15.726H11.236L11 15L10.765 15.726H10.001ZM14.001 15.726L14.619 16.175L14.383 16.9L15 16.452L15.618 16.9L15.382 16.175L16 15.726H15.236L15 15L14.765 15.726H14.001Z" fill="white" style="fill:white;fill-opacity:1;"/>
</svg>
