<svg xmlns="http://www.w3.org/2000/svg" viewBox="0 0 500 500"><g id="freepik--background-complete--inject-63"><path d="M195.29,51.38c.52-3.73-4.76-6.8-8.72-7.12-1.89-.16-3.85.13-5.64-.49-3.87-1.35-5.42-6.36-9.21-8-2.83-1.19-6.08-.13-8.82,1.25s-5.46,3.12-8.52,3.32c-2.66.17-5.56-.82-7.89.48-1.74,1-2.65,3-4.25,4.15a10.12,10.12,0,0,1-5.55,1.51,15.53,15.53,0,0,0-5.73.93c-1.77.81-3.23,2.69-2.86,4.6Z" style="fill:#f5f5f5"></path><path d="M460.8,272.09c.86-6.21-7.91-11.32-14.5-11.85-3.14-.26-6.4.22-9.38-.82-6.44-2.24-9-10.57-15.31-13.23-4.7-2-10.12-.21-14.68,2.08s-9.06,5.18-14.16,5.51c-4.43.28-9.24-1.36-13.12.81-2.89,1.61-4.4,4.94-7.06,6.9s-6,2.33-9.24,2.51-6.58.2-9.52,1.55-5.38,4.46-4.77,7.64Z" style="fill:#ebebeb"></path><path d="M127.4,120.53c.65-4.75-6.06-8.66-11.1-9.07-2.4-.19-4.89.18-7.17-.62-4.93-1.72-6.9-8.09-11.72-10.12-3.59-1.52-7.74-.16-11.23,1.59s-6.93,4-10.83,4.22c-3.39.21-7.07-1-10,.61-2.21,1.24-3.36,3.78-5.4,5.28s-4.59,1.79-7.07,1.92-5,.16-7.28,1.19-4.11,3.41-3.65,5.84Z" style="fill:#f5f5f5"></path><polygon points="392.87 379.38 370.62 475.98 380.03 475.95 402.32 380.29 392.87 379.38" style="fill:#e0e0e0"></polygon><polygon points="433.45 379.38 455.78 475.98 464.72 475.98 443.12 379.38 433.45 379.38" style="fill:#e0e0e0"></polygon><polygon points="377.85 306.83 390.52 373.34 404.91 373.34 391.38 306.83 377.85 306.83" style="fill:#e0e0e0"></polygon><polygon points="157.22 379.38 139.07 475.98 148.31 475.98 167.27 379.38 157.22 379.38" style="fill:#e0e0e0"></polygon><polygon points="195.38 379.38 216.12 475.45 225.25 475.45 205.22 379.38 195.38 379.38" style="fill:#e0e0e0"></polygon><polygon points="142.2 306.83 154.87 373.34 169.26 373.34 155.73 306.83 142.2 306.83" style="fill:#e0e0e0"></polygon><polygon points="113.7 300.79 116.29 312.88 405.34 312.88 401.97 300.79 113.7 300.79" style="fill:#ebebeb"></polygon><polygon points="119.22 324.27 122.28 336.36 409.37 336.36 406.76 324.27 119.22 324.27" style="fill:#ebebeb"></polygon><polygon points="124.93 348.58 127.77 360.67 413.98 360.67 411.27 348.58 124.93 348.58" style="fill:#ebebeb"></polygon><rect x="146.81" y="373.34" width="308.63" height="12.09" style="fill:#ebebeb"></rect><path d="M330.38,223.6a13.6,13.6,0,0,1-11.8-20.37l39-68a13.45,13.45,0,0,1,11.76-6.83h0a13.47,13.47,0,0,1,11.76,6.76l39.4,67.77a13.61,13.61,0,0,1-11.72,20.44l-78.39.24Zm39-91.15h0a9.44,9.44,0,0,0-8.25,4.8l-39,68a9.54,9.54,0,0,0,8.27,14.29h0l78.39-.24A9.54,9.54,0,0,0,417,205l-39.4-67.76A9.44,9.44,0,0,0,369.37,132.45Z" style="fill:#ebebeb"></path><path d="M361.72,161.87l1.83,25.37a4.1,4.1,0,0,0,3.89,3.81h0a4.12,4.12,0,0,0,4.31-3.69l2.6-25.53a3.24,3.24,0,0,0-3.29-3.56l-6.19.14A3.23,3.23,0,0,0,361.72,161.87Z" style="fill:#ebebeb"></path><path d="M374.29,205.27a6.19,6.19,0,1,1-4-7.8A6.19,6.19,0,0,1,374.29,205.27Z" style="fill:#ebebeb"></path></g><g id="freepik--Floor--inject-63"><path d="M469.81,475.86c0,.14-98.42.26-219.8.26S30.19,476,30.19,475.86s98.4-.26,219.82-.26S469.81,475.71,469.81,475.86Z" style="fill:#263238"></path></g><g id="freepik--Device--inject-63"><path d="M317.52,368.58l-101-.07c-12.14,0-22-10.35-22-23.11l0-266c0-12.76,9.86-23.11,22-23.1l100.95.06c12.15,0,22,10.35,22,23.11l-.05,266C339.52,358.24,329.67,368.58,317.52,368.58Z" style="fill:#263238"></path><path d="M317.49,65.78l-19.58,0A5,5,0,0,0,293.16,71v3.73a5,5,0,0,1-4.76,5.22l-38.15,0a5,5,0,0,1-4.75-5.23V71a5,5,0,0,0-4.75-5.22h-24c-8.51,0-15.41,7.25-15.41,16.19l0,259.62c0,8.93,6.89,16.18,15.39,16.19l100.76.06c8.51,0,15.41-7.24,15.41-16.18L332.88,82C332.88,73,326,65.78,317.49,65.78Z" style="fill:#fff"></path><path d="M228.8,333.27v6.35a.7.7,0,0,1-1.07.59l-5-3.18a.7.7,0,0,1,0-1.18l5-3.18A.7.7,0,0,1,228.8,333.27Z" style="fill:#e0e0e0"></path><path d="M269.86,336.38a4.38,4.38,0,1,1-4.38-4.39A4.39,4.39,0,0,1,269.86,336.38Z" style="fill:#e0e0e0"></path><rect x="301.32" y="332.56" width="8.08" height="8.1" rx="1.87" style="fill:#e0e0e0"></rect><circle cx="267.44" cy="180.47" r="49.74" transform="translate(29.23 398.07) rotate(-76.42)" style="fill:#f5f5f5"></circle><path d="M269.67,202.38a4.11,4.11,0,1,1-4.09-4.12A4.12,4.12,0,0,1,269.67,202.38Z" style="fill:#455a64"></path><path d="M257.35,197.1a11.39,11.39,0,0,1,16.48-.22c2.1,2.12,5.38-1.13,3.28-3.25a16.07,16.07,0,0,0-23,.19c-2.05,2.15,1.2,5.44,3.26,3.28Z" style="fill:#455a64"></path><path d="M243.39,178c6.25-5.4,13.71-8.8,22.06-8.82A32.7,32.7,0,0,1,288,177.76c2.16,2,5.45-1.21,3.28-3.25a37.55,37.55,0,0,0-25.78-10c-9.61,0-18.15,4-25.34,10.17-2.25,1.95,1,5.22,3.26,3.28Z" style="fill:#455a64"></path><path d="M248.9,188.57a22.6,22.6,0,0,1,33.23-.47c2.08,2.13,5.36-1.12,3.28-3.26a27.23,27.23,0,0,0-39.77.45c-2,2.18,1.23,5.47,3.26,3.28Z" style="fill:#455a64"></path><circle cx="291.96" cy="167.08" r="12.61" transform="translate(76.6 425.49) rotate(-79.97)" style="fill:#A84034"></circle><rect x="291.01" y="161.01" width="2.53" height="11.33" transform="translate(203.46 -157.85) rotate(45)" style="fill:#fff"></rect><rect x="291.01" y="161.01" width="2.53" height="11.33" transform="translate(-32.25 255.48) rotate(-45)" style="fill:#fff"></rect><path d="M264.11,93.55a8.36,8.36,0,0,1,2-.87l.41-2,3.33-.06.48,2a8.17,8.17,0,0,1,2,.8L274,92.3l2.4,2.32-1.05,1.72a8.36,8.36,0,0,1,.87,2l2,.41.06,3.34-2,.47a8.14,8.14,0,0,1-.79,2l1.1,1.68-2.31,2.4-1.72-1a8.39,8.39,0,0,1-2,.86l-.41,2-3.33.06-.48-2a8.34,8.34,0,0,1-2-.8l-1.69,1.1-2.4-2.31,1.05-1.72a8.25,8.25,0,0,1-.87-2l-2-.41-.06-3.33,2-.48a8.31,8.31,0,0,1,.79-2l-1.1-1.69,2.32-2.39,1.72,1ZM265.88,98a3.58,3.58,0,1,0,5.06-.09A3.58,3.58,0,0,0,265.88,98Z" style="fill:#e0e0e0"></path><path d="M221.82,101c-1,0-2.39,0-3.72,0-1.59,0-3.18,0-4.29,0h0a.5.5,0,0,1-.5-.5.49.49,0,0,1,.49-.5c1.11,0,2.72,0,4.32,0s3.18.06,4.29,0h0a.49.49,0,0,1,.5.49.5.5,0,0,1-.49.51Z" style="fill:#263238"></path><path d="M216.85,104.36a.51.51,0,0,1-.37-.17l-3-3.43a.52.52,0,0,1,0-.68l3-3.12a.5.5,0,1,1,.72.69l-2.65,2.79,2.74,3.09a.5.5,0,0,1-.38.83Z" style="fill:#263238"></path><circle cx="319.93" cy="96.54" r="1.55" style="fill:#263238"></circle><path d="M321.48,101.44a1.56,1.56,0,1,1-1.55-1.55A1.55,1.55,0,0,1,321.48,101.44Z" style="fill:#263238"></path><circle cx="319.93" cy="106.34" r="1.55" style="fill:#263238"></circle><path d="M233.76,248.89a49.33,49.33,0,0,1-7.1.26,49.24,49.24,0,0,1-7.09-.26,49.24,49.24,0,0,1,7.09-.26A49.33,49.33,0,0,1,233.76,248.89Z" style="fill:#263238"></path><path d="M259.23,265.49c0,.14-8.72.26-19.47.26s-19.47-.12-19.47-.26,8.71-.26,19.47-.26S259.23,265.35,259.23,265.49Z" style="fill:#263238"></path><path d="M259.23,282c0,.14-8.72.26-19.47.26s-19.47-.12-19.47-.26,8.71-.26,19.47-.26S259.23,281.84,259.23,282Z" style="fill:#263238"></path><rect x="290.23" y="259.26" width="26.7" height="12.45" rx="6.23" style="fill:#ebebeb"></rect><path d="M301.6,265.49a5.22,5.22,0,1,1-5.22-5.22A5.22,5.22,0,0,1,301.6,265.49Z" style="fill:#e0e0e0"></path><path d="M310.71,288.21H296.46a6.23,6.23,0,0,1-6.23-6.23h0a6.23,6.23,0,0,1,6.23-6.23h14.25a6.23,6.23,0,0,1,6.23,6.23h0A6.23,6.23,0,0,1,310.71,288.21Z" style="fill:#ebebeb"></path><circle cx="296.38" cy="281.98" r="5.22" style="fill:#e0e0e0"></circle><path d="M259.23,298.58c0,.15-8.72.26-19.47.26s-19.47-.11-19.47-.26,8.71-.26,19.47-.26S259.23,298.44,259.23,298.58Z" style="fill:#263238"></path><path d="M310.71,306.65H296.46a6.22,6.22,0,0,1-6.23-6.22h0a6.23,6.23,0,0,1,6.23-6.23h14.25a6.23,6.23,0,0,1,6.23,6.23h0A6.22,6.22,0,0,1,310.71,306.65Z" style="fill:#ebebeb"></path><circle cx="296.38" cy="300.43" r="5.22" style="fill:#e0e0e0"></circle></g><g id="freepik--Sun--inject-63"><circle cx="413.58" cy="80.66" r="16.3" transform="translate(268.04 476.1) rotate(-80.83)" style="fill:#A84034"></circle><path d="M411.26,117.11c-.09,0-.17-3-.17-6.73s.08-6.72.17-6.72a64.49,64.49,0,0,1,.17,6.72A64.61,64.61,0,0,1,411.26,117.11Z" style="fill:#A84034"></path><path d="M401.87,99.87c.08,0-1.45,2.86-3.42,6.27s-3.64,6.15-3.72,6.1,1.45-2.85,3.42-6.27S401.79,99.82,401.87,99.87Z" style="fill:#A84034"></path><path d="M392.23,93.87a35.87,35.87,0,0,1-3.8,3.24,39.42,39.42,0,0,1-4,3,35.87,35.87,0,0,1,3.8-3.24A37,37,0,0,1,392.23,93.87Z" style="fill:#A84034"></path><path d="M427.52,110.48a9,9,0,0,1-.43-1.65c-.23-1-.57-2.44-1-4s-.84-2.94-1.15-3.94a8.53,8.53,0,0,1-.46-1.65,8.11,8.11,0,0,1,.69,1.57c.37,1,.83,2.37,1.25,3.93s.71,3,.89,4A8.25,8.25,0,0,1,427.52,110.48Z" style="fill:#A84034"></path><path d="M444.05,98.75a57.74,57.74,0,0,1-4.82-4,57.16,57.16,0,0,1-4.59-4.24,57.74,57.74,0,0,1,4.82,4A57.16,57.16,0,0,1,444.05,98.75Z" style="fill:#A84034"></path><path d="M450.38,82.63a13,13,0,0,1-2-.28c-1.21-.2-2.88-.46-4.73-.67s-3.54-.34-4.76-.42a12.15,12.15,0,0,1-2-.17,10,10,0,0,1,2-.07c1.23,0,2.93.11,4.79.32s3.54.51,4.74.77A11,11,0,0,1,450.38,82.63Z" style="fill:#A84034"></path><path d="M450.4,66.78c0,.1-3.5,1-7.88,2.1s-7.94,1.85-8,1.76,3.51-1,7.88-2.09S450.38,66.69,450.4,66.78Z" style="fill:#A84034"></path><path d="M432,48.32c.07,0-1.61,2.74-3.77,6s-4,5.88-4.06,5.82,1.61-2.74,3.77-6A69.81,69.81,0,0,1,432,48.32Z" style="fill:#A84034"></path><path d="M413.71,44.46a16,16,0,0,1,0,2.24c0,1.38,0,3.28,0,5.38s0,4,.06,5.4a15.82,15.82,0,0,1,0,2.23,12.59,12.59,0,0,1-.23-2.22c-.08-1.38-.15-3.29-.15-5.4s.06-4,.14-5.4A12.35,12.35,0,0,1,413.71,44.46Z" style="fill:#A84034"></path><path d="M399.87,61.69c-.08.05-1.8-2.61-3.83-5.94s-3.63-6.08-3.55-6.13,1.8,2.62,3.84,6S400,61.65,399.87,61.69Z" style="fill:#A84034"></path><path d="M391.6,68.72a7.69,7.69,0,0,1-1.73-.27c-1.06-.23-2.51-.58-4.1-1s-3-1-4-1.35a8.59,8.59,0,0,1-1.61-.7,9.09,9.09,0,0,1,1.69.48c1,.32,2.45.78,4,1.24s3,.86,4.06,1.14A9.26,9.26,0,0,1,391.6,68.72Z" style="fill:#A84034"></path><path d="M388,81.24a37.91,37.91,0,0,1-5.2.67,41.62,41.62,0,0,1-5.23.34,38.48,38.48,0,0,1,5.2-.68A42.56,42.56,0,0,1,388,81.24Z" style="fill:#A84034"></path></g><g id="freepik--plant-2--inject-63"><path d="M376.88,371.74l14.58,103.87,3.8.12C392.84,440.45,390.26,404.47,376.88,371.74Z" style="fill:#455a64"></path><path d="M417.39,366.87C407.2,378,403.1,393.39,400.52,408.28c-3.66,21.11-4,46.05-2.89,67.45l5.32.12A292.89,292.89,0,0,1,417.39,366.87Z" style="fill:#455a64"></path><path d="M379.56,433.19c-1.17-5.15-2.51-10.38-5.45-14.77-4-5.92-10.43-9.66-16.94-12.58s-13.34-5.24-19.22-9.28c6.56,10.75,21.44,13.61,29,23.67,3.77,5,5.34,11.28,6.81,17.37,3.23,13.28,5.21,24.77,8.43,38h4.32A340.37,340.37,0,0,0,379.56,433.19Z" style="fill:#455a64"></path><path d="M406.84,475.73s3.65-41.25,6.36-48.83,28.31-28.5,28.07-27.51S422.06,423.27,419.35,428,412,475.73,412,475.73Z" style="fill:#455a64"></path></g><g id="freepik--plant-1--inject-63"><path d="M285.82,432.59a8.08,8.08,0,0,1,4.49,4.47,14.33,14.33,0,0,1,1,6.39c-.21,4.2-2.3,8.57-4.64,12.07-3.71-2.84-4.86-8.13-5.28-10.86-.66-4.3.76-12.48,4.45-12.07" style="fill:#A84034"></path><path d="M291.18,462.13a6.91,6.91,0,0,1,1.81-6.7,9.13,9.13,0,0,1,6.61-2.54,3.88,3.88,0,0,1,3,1.13,2.94,2.94,0,0,1,.24,3,5.92,5.92,0,0,1-2.07,2.32c-2.92,2.11-6.13,3.61-9.64,2.8" style="fill:#A84034"></path><path d="M287.51,475.21a5.43,5.43,0,0,1,.07-.86c.07-.61.16-1.4.27-2.34a24.48,24.48,0,0,1,1.91-7.56,14.87,14.87,0,0,1,4.95-6,10.13,10.13,0,0,1,2.1-1.09,4.6,4.6,0,0,1,.61-.2l.22-.05a16.29,16.29,0,0,0-2.81,1.52,15.39,15.39,0,0,0-4.79,5.94,26,26,0,0,0-2,7.46c-.15,1-.27,1.78-.37,2.33A4.14,4.14,0,0,1,287.51,475.21Z" style="fill:#263238"></path><path d="M285.28,438.91a1.47,1.47,0,0,1,.07.37l.13,1.07c.12.94.26,2.28.42,3.95.33,3.34.71,7.95,1,13.05s.49,9.73.57,13.08c0,1.68.06,3,.06,4v1.08c0,.25,0,.38,0,.38a2.28,2.28,0,0,1,0-.38l-.05-1.08c0-1-.09-2.31-.16-4-.14-3.35-.34-8-.65-13.07s-.66-9.71-.93-13.05c-.14-1.64-.24-3-.32-3.95,0-.44-.06-.8-.08-1.08A2.72,2.72,0,0,1,285.28,438.91Z" style="fill:#263238"></path><path d="M285.27,465.07a16.14,16.14,0,0,0-9.57-11.24c-1.21-.49-2.77-.76-3.68.18s-.59,2.49,0,3.67a13.82,13.82,0,0,0,13.23,7.74" style="fill:#A84034"></path><path d="M276.52,457.74a4,4,0,0,1,.77.28c.24.1.54.22.87.39s.72.35,1.12.61a12.66,12.66,0,0,1,1.28.84,16.18,16.18,0,0,1,1.38,1.1,17.81,17.81,0,0,1,2.69,3,17.23,17.23,0,0,1,1.88,3.59,16,16,0,0,1,.52,1.68,15.07,15.07,0,0,1,.31,1.51,10.76,10.76,0,0,1,.14,1.26,6.57,6.57,0,0,1,0,1,4.31,4.31,0,0,1,0,.81c-.07,0,0-1.16-.35-3a14,14,0,0,0-.34-1.48,15.94,15.94,0,0,0-.55-1.65,17.92,17.92,0,0,0-1.86-3.52,19,19,0,0,0-2.62-3,16.12,16.12,0,0,0-1.35-1.11c-.42-.34-.86-.6-1.25-.86C277.58,458.22,276.5,457.8,276.52,457.74Z" style="fill:#263238"></path></g><g id="freepik--Character--inject-63"><path d="M110.07,420.8,81.94,443.87,110.47,479c3.19-2.93-4.83-26.58-4.83-26.58l18.63-14Z" style="fill:#455a64"></path><g style="opacity:0.6000000000000001"><path d="M98.34,440.33a1.85,1.85,0,0,0-2.44.33,1.78,1.78,0,0,0,.31,2.43,2,2,0,0,0,2.59-.37,1.85,1.85,0,0,0-.61-2.49" style="fill:#fff"></path></g><g style="opacity:0.6000000000000001"><path d="M82.05,443.77l2.83-2.34L111,476.27s.58,2.12-.67,2.83Z" style="fill:#fff"></path></g><path d="M106.28,452.85c-.17.14-1-.66-2.19-1.05s-2.32-.26-2.38-.48,1.14-.76,2.63-.25S106.47,452.76,106.28,452.85Z" style="fill:#263238"></path><path d="M107.75,457.78c-.13.17-1-.33-2.23-.33s-2.1.46-2.23.29.75-1.08,2.24-1.06S107.91,457.64,107.75,457.78Z" style="fill:#263238"></path><path d="M105,463.45c-.17-.12.5-1.06,1.8-1.38s2.32.18,2.23.36-1,.1-2,.38S105.19,463.61,105,463.45Z" style="fill:#263238"></path><path d="M110.17,449.18c-.21.06-.61-.92-1.47-1.84s-1.77-1.42-1.7-1.63,1.28,0,2.27,1.11S110.38,449.16,110.17,449.18Z" style="fill:#263238"></path><path d="M113.66,445c-.07.06-.72-.53-1.42-1.77a10.45,10.45,0,0,1-.93-2.3,10.2,10.2,0,0,1-.28-1.44,2.74,2.74,0,0,1,0-.87,1,1,0,0,1,.85-.82,1.19,1.19,0,0,1,1,.43,3.19,3.19,0,0,1,.45.74,8.19,8.19,0,0,1,.51,1.4,7.78,7.78,0,0,1,.25,2.48,3.7,3.7,0,0,1-.59,2.2c-.11,0,.1-.86,0-2.2a9.07,9.07,0,0,0-.39-2.29,8.76,8.76,0,0,0-.51-1.26c-.2-.45-.46-.77-.7-.73s-.12,0-.17.2a2.3,2.3,0,0,0,0,.63,13.33,13.33,0,0,0,.22,1.36,12.68,12.68,0,0,0,.73,2.23A14.58,14.58,0,0,1,113.66,445Z" style="fill:#263238"></path><path d="M113.24,444.94c-.08,0,.26-.88,1.32-1.85a7.48,7.48,0,0,1,2.12-1.32,7.69,7.69,0,0,1,1.43-.42,1.89,1.89,0,0,1,1.8.4,1.07,1.07,0,0,1,.11,1.14,3.22,3.22,0,0,1-.5.7,5,5,0,0,1-1.18,1,5.21,5.21,0,0,1-2.43.73c-1.47.05-2.26-.5-2.21-.56a20.42,20.42,0,0,0,2.16,0A5.35,5.35,0,0,0,118,444a4.22,4.22,0,0,0,1-.86c.33-.36.52-.74.37-.85a1.32,1.32,0,0,0-1.08-.15,8.65,8.65,0,0,0-1.31.34,8.21,8.21,0,0,0-2,1.09C113.83,444.31,113.34,445,113.24,444.94Z" style="fill:#263238"></path><path d="M97.33,439.64,97.67,476l45.26-.19c-.28-4.32-23.74-12.91-23.74-12.91l.74-23.31Z" style="fill:#455a64"></path><g style="opacity:0.6000000000000001"><path d="M105.19,461a1.85,1.85,0,0,0-1.27,2.12,1.78,1.78,0,0,0,2.09,1.27,2,2,0,0,0,1.33-2.24,1.85,1.85,0,0,0-2.32-1.09" style="fill:#fff"></path></g><g style="opacity:0.6000000000000001"><path d="M97.66,475.88l0-3.68,43.53,1.48s2,.88,1.78,2.3Z" style="fill:#fff"></path></g><path d="M119.93,462.69c0,.22-1.11.33-2.2,1s-1.66,1.65-1.86,1.56.12-1.36,1.45-2.21S120,462.49,119.93,462.69Z" style="fill:#263238"></path><path d="M124.68,464.63c0,.22-.9.6-1.65,1.54s-1,1.92-1.18,1.92-.36-1.26.59-2.41S124.68,464.42,124.68,464.63Z" style="fill:#263238"></path><path d="M127.4,470.31c-.2,0-.51-1.06,0-2.27s1.6-1.7,1.69-1.52-.54.84-1,1.84S127.62,470.28,127.4,470.31Z" style="fill:#263238"></path><path d="M119.51,457.36c-.1.2-1.11-.1-2.36,0s-2.22.49-2.34.3.82-1,2.29-1.07S119.61,457.18,119.51,457.36Z" style="fill:#263238"></path><path d="M118.4,452a4.26,4.26,0,0,1-2.26,0,10.52,10.52,0,0,1-3.68-1.4,3,3,0,0,1-.69-.53,1,1,0,0,1-.1-1.18,1.2,1.2,0,0,1,1-.51,3,3,0,0,1,.85.12,7.82,7.82,0,0,1,3.51,1.84c1.05,1,1.42,1.79,1.34,1.83s-.61-.61-1.69-1.41a8.65,8.65,0,0,0-2-1.13,8.36,8.36,0,0,0-1.31-.4c-.48-.12-.88-.12-1,.09s0,.11.06.25a2,2,0,0,0,.5.39,13.42,13.42,0,0,0,1.2.68,12.51,12.51,0,0,0,2.2.83A16.28,16.28,0,0,1,118.4,452Z" style="fill:#263238"></path><path d="M118.12,452.31c-.08,0-.52-.75-.61-2.19a7.35,7.35,0,0,1,.3-2.48,7.61,7.61,0,0,1,.57-1.38,1.87,1.87,0,0,1,1.44-1.15,1.06,1.06,0,0,1,1,.63,3.43,3.43,0,0,1,.24.83,5.17,5.17,0,0,1-1,3.87c-.88,1.18-1.8,1.45-1.82,1.37s.69-.54,1.36-1.67a5.06,5.06,0,0,0,.71-2.13,4.45,4.45,0,0,0,0-1.31c-.08-.48-.26-.87-.44-.82s-.61.36-.79.75a7.92,7.92,0,0,0-.56,1.23,8.18,8.18,0,0,0-.43,2.26C118,451.45,118.24,452.28,118.12,452.31Z" style="fill:#263238"></path><path d="M101.21,228.91s-6.35,6.79-9.46,13.3-5.11,22-5.11,22-8.76,19.51-7.43,29.49S89.46,372,89.46,372s-.44,66.36,5.88,78.19l1.41,6.39L122.27,452h0l-.16-3.83,6-130.12,15.36-88.59Z" style="fill:#263238"></path><path d="M157.52,248.26s15.25,84,16.6,98.57-50.59,91.45-50.59,91.45L99.79,413.55l34.08-63.35-11.08-63.85,15.41-56.41,16.18.57Z" style="fill:#263238"></path><path d="M91.38,429.52a17,17,0,0,0,.18,1.86c.16,1.22.46,3,.88,5.32.85,4.62,2.23,11.32,4.08,19.69l0,.18.18,0,25.53-4.48.19,0v-.2c.71-17.51,1.56-38.44,2.47-60.89.94-24.15,1.81-46.55,2.53-64.92v0c1.91-14.76,3.49-27,4.6-35.51.53-4.24.95-7.57,1.24-9.87.13-1.12.24-2,.31-2.59s.08-.89.08-.89-.06.29-.15.88-.22,1.47-.38,2.58c-.32,2.29-.78,5.62-1.37,9.85C130.63,299,129,311.23,127,326h0c-.74,18.37-1.65,40.77-2.63,64.92-.88,22.45-1.7,43.38-2.38,60.89l.2-.23-25.5,4.59.21.14c-1.9-8.36-3.33-15.05-4.24-19.65-.45-2.31-.78-4.09-1-5.3-.11-.6-.17-1.06-.21-1.37A4.57,4.57,0,0,0,91.38,429.52Z" style="fill:#455a64"></path><path d="M61.75,194.15s15.8-34.06,19.53-35.87,14.45-2.42,15.9-.38L68.86,198.68Z" style="fill:#455a64"></path><path d="M62.57,189.55a3.15,3.15,0,0,0-2.29-.3h0c-4.91,1.22-22.85,6-24.85,11.13-2.32,5.91,11.87,82.71,13.7,84.79s30.05-1.41,30.92-4.69-9.18-86.06-9.18-86.06Z" style="fill:#455a64"></path><path d="M40.3,241.86s-1.6.1-3.19,3.63,1.21,32.19,3.32,35.12,8.27,3.55,8.27,3.55Z" style="fill:#455a64"></path><path d="M71.75,282.05a.71.71,0,0,1-.14-.19l-.38-.59c-.33-.52-.77-1.31-1.29-2.36a43.07,43.07,0,0,1-3.23-9.33,120.74,120.74,0,0,1-2.24-14.47c-.58-5.48-1.22-11.5-1.9-17.82-1.36-12.64-2.49-24.1-2.68-32.45-.1-4.17,0-7.54.11-9.87.06-1.16.13-2.07.19-2.68,0-.28.05-.5.07-.69a.92.92,0,0,1,0-.24.87.87,0,0,1,0,.24c0,.19,0,.42,0,.7,0,.65,0,1.55-.09,2.68-.06,2.32-.09,5.69.06,9.85.28,8.32,1.47,19.77,2.83,32.41.66,6.31,1.29,12.33,1.86,17.81a125.94,125.94,0,0,0,2.12,14.45,45.68,45.68,0,0,0,3.05,9.33c.49,1.05.9,1.85,1.2,2.39l.33.61C71.72,282,71.76,282,71.75,282.05Z" style="fill:#263238"></path><path d="M62.75,236.5a31.35,31.35,0,0,1-3.35.63c-2.06.35-4.91.9-8,1.67s-5.88,1.61-7.87,2.26a28.59,28.59,0,0,1-3.25,1,3,3,0,0,1,.81-.42c.54-.24,1.33-.56,2.32-.93a73.67,73.67,0,0,1,16-4c1-.13,1.89-.22,2.48-.25A3,3,0,0,1,62.75,236.5Z" style="fill:#263238"></path><path d="M39.93,238.69a1.6,1.6,0,0,1,.12.47c.07.37.15.82.25,1.36l.83,5c.71,4.23,1.74,10.07,3,16.49s2.6,12.21,3.58,16.39c.48,2,.87,3.7,1.17,4.95l.3,1.35a1.74,1.74,0,0,1,.07.48,1.48,1.48,0,0,1-.17-.45l-.4-1.33c-.33-1.15-.79-2.83-1.33-4.91-1.07-4.16-2.44-9.94-3.73-16.37s-2.26-12.29-2.88-16.55c-.31-2.12-.54-3.85-.67-5-.06-.55-.11-1-.15-1.38A2.18,2.18,0,0,1,39.93,238.69Z" style="fill:#263238"></path><path d="M60,204.11a7.92,7.92,0,0,1,.16-2.13,46.42,46.42,0,0,1,2.63-9.93,8.1,8.1,0,0,1,.91-1.93c.14.06-1,3.1-2,7S60.18,204.13,60,204.11Z" style="fill:#263238"></path><path d="M159.14,131.19c-.16-2.89-.52-17-.69-19.1a11.81,11.81,0,0,0-3.54-7.73,7.39,7.39,0,0,0-8-1.55h0a4.94,4.94,0,0,0-3.55,3.47c-5.92,21-5,43.47-7.6,65.23,7.73,1.26,18.13.75,25.94.34C161.68,154.47,160.21,150,159.14,131.19Z" style="fill:#263238"></path><path d="M155.89,160.86a2.05,2.05,0,0,1-.06-.56c0-.42-.05-1-.08-1.61,0-1.47-.11-3.49-.18-5.94-.11-5.08-.25-12-.41-19.59-.06-3.83-.12-7.47-.17-10.79,0-1.66,0-3.23-.05-4.71a24.15,24.15,0,0,0-.28-4,6.6,6.6,0,0,0-3-4.76,5.23,5.23,0,0,0-2-.62s0,0,.14,0a1.92,1.92,0,0,1,.42,0,4.15,4.15,0,0,1,1.57.47,5.63,5.63,0,0,1,1.94,1.7,7.79,7.79,0,0,1,1.33,3.16,23.86,23.86,0,0,1,.35,4.11c0,1.48.06,3.06.1,4.71.06,3.32.13,7,.21,10.79.1,7.62.19,14.52.26,19.59,0,2.46,0,4.47,0,5.94,0,.66,0,1.19,0,1.62A3,3,0,0,1,155.89,160.86Z" style="fill:#455a64"></path><path d="M148.86,152.88a7.11,7.11,0,0,1-.09-1.26c0-.82-.05-2-.05-3.46,0-2.92.06-7,.17-11.41s.23-8.38.32-11.4c0-1.38.08-2.54.11-3.45a5.91,5.91,0,0,1,.11-1.27,7.18,7.18,0,0,1,.09,1.27c0,.81,0,2,0,3.46,0,2.92-.06,7-.17,11.4s-.24,8.38-.32,11.4c-.05,1.38-.08,2.54-.11,3.46A5.86,5.86,0,0,1,148.86,152.88Z" style="fill:#455a64"></path><path d="M97.94,158.28c-1,0-19.86,1.34-24.24,21.54s-5.64,48.5-5.64,48.5l20.45-2Z" style="fill:#A84034"></path><path d="M107.2,153.81l3.32-6.13,29-.79,2,5.22,17.09,6.17L157.18,234l12.66,69.91S169.71,314,136,317.2l-2.67-36.54-16.85-.4.46,35.69s-29.74-.48-39.17-7.21c0,0-2.86-34,5.26-58.49,7.11-21.44,9.88-27,9.88-27L93.49,159Z" style="fill:#A84034"></path><g style="opacity:0.30000000000000004"><path d="M98.24,159.15Q89.5,196.56,80.74,234l5.93,6.29A17.72,17.72,0,0,0,96.9,224.35c0-3.46-1.1-6.83-1.24-10.29-.32-7.8,4-14.95,6-22.5C104.41,180.87,102.4,169.39,98.24,159.15Z"></path></g><path d="M154.91,157.31c7,1.29,12.39,8.69,14,16.63.93,4.65,3.64,27.07,3.64,27.07l1.49,8.22s1.25,28.25-4.74,31.41c-7,3.68-11-.36-13.32-3.32s-4.79-22.22-4.79-22.22L153.8,169Z" style="fill:#A84034"></path><path d="M158.22,168.65a4.47,4.47,0,0,1-.08.81q-.12.85-.33,2.31c-.32,2-.76,4.93-1.31,8.47s-1.26,7.85-2,12.57c-.39,2.36-.79,4.84-1.21,7.41s-.94,5.22-1.16,8a27.59,27.59,0,0,0,0,4.72v0c2.17,9.71,4.2,18.28,5.73,24.42.77,3,1.39,5.48,1.84,7.23.21.81.38,1.45.51,1.94a2.93,2.93,0,0,1,.15.69,3.35,3.35,0,0,1-.24-.66l-.6-1.92c-.5-1.68-1.2-4.13-2-7.19-1.62-6.12-3.71-14.69-5.89-24.39v0a28.53,28.53,0,0,1,0-4.8c.22-2.78.74-5.44,1.17-8s.85-5,1.24-7.41c.8-4.71,1.52-9,2.12-12.55s1.12-6.4,1.48-8.45c.18-.95.32-1.72.43-2.29A4.17,4.17,0,0,1,158.22,168.65Z" style="fill:#263238"></path><path d="M84,163,89.3,234s9.92-45.23,10.32-56.8a67.74,67.74,0,0,0-2-19.72S88,155.93,84,163Z" style="fill:#455a64"></path><path d="M80.94,158.5a4.78,4.78,0,0,1,1.77,1A4,4,0,0,1,84,161.34a11.23,11.23,0,0,1,.53,2.64c.17,1.88.16,3.58.16,4.81a9.62,9.62,0,0,1-.08,2,6.62,6.62,0,0,1-.29-2c-.1-1.22-.14-2.92-.31-4.77s-.59-3.51-1.49-4.28S80.89,158.58,80.94,158.5Z" style="fill:#263238"></path><path d="M117.72,161.07s-.23-.19-.6-.62-.89-1-1.54-1.85l.3,0c-.72,2.09-1.82,5.12-3.07,8.52l-.18.48-.27-.41c-.15-.23-.33-.46-.47-.7a27.07,27.07,0,0,1-2.07-4.72c-.53-1.49-1-2.83-1.34-4s-.68-2-.91-2.65a5.58,5.58,0,0,1-.32-1,3.32,3.32,0,0,1,.51.91c.29.6.65,1.5,1.07,2.61s.91,2.47,1.44,3.91a30.27,30.27,0,0,0,2.06,4.62c.14.23.3.44.44.65l-.45.07c1.27-3.39,2.42-6.4,3.24-8.46l.11-.29.19.25A23.71,23.71,0,0,1,117.72,161.07Z" style="fill:#263238"></path><path d="M140.72,156.19a4.08,4.08,0,0,1-.35.95c-.26.6-.66,1.45-1.16,2.5s-1.12,2.29-1.85,3.66a34.38,34.38,0,0,1-2.62,4.32l-.33.45-.13-.55-.05-.23c-.82-3.49-1.53-6.66-2-9l.32.08a13.12,13.12,0,0,1-2.29,1.75c-.54.39-.79.67-.82.64s.17-.34.69-.8a16.85,16.85,0,0,0,2.14-1.84l.23-.27.1.35c.58,2.29,1.35,5.45,2.17,8.94l0,.23-.46-.1a39.21,39.21,0,0,0,2.61-4.23l1.94-3.59,1.31-2.43A4,4,0,0,1,140.72,156.19Z" style="fill:#263238"></path><path d="M118.22,160.79s-2.81,36.5-3.54,41.2,1.77,78.27,1.77,78.27l16.44,1.06s.17-60.75,0-61.17.08-42.89.08-42.89l-3.73-16.92-6.36,7.53Z" style="fill:#fff"></path><path d="M136.57,195.49c0,.08-.58.21-.87,1a1.58,1.58,0,0,0,.07,1.32,1.33,1.33,0,0,0,1.41.54,1.3,1.3,0,0,0,1.12-1,1.57,1.57,0,0,0-.4-1.26,2.23,2.23,0,0,0-1.17-.62s.13-.1.4-.1a1.69,1.69,0,0,1,1,.47,1.9,1.9,0,0,1,.61,1.59,1.89,1.89,0,0,1-3.42.63,1.89,1.89,0,0,1,0-1.71,1.65,1.65,0,0,1,.8-.8C136.41,195.44,136.56,195.46,136.57,195.49Z" style="fill:#263238"></path><path d="M136.57,227.35c0,.08-.58.22-.87,1a1.58,1.58,0,0,0,.07,1.32,1.44,1.44,0,0,0,2.53-.47,1.56,1.56,0,0,0-.4-1.26c-.56-.63-1.18-.54-1.17-.63s.13-.1.4-.09a1.66,1.66,0,0,1,1,.46,1.93,1.93,0,0,1,.61,1.59,1.89,1.89,0,0,1-3.42.63,1.87,1.87,0,0,1,0-1.7,1.65,1.65,0,0,1,.8-.8C136.41,227.3,136.56,227.33,136.57,227.35Z" style="fill:#263238"></path><path d="M138,265.89c0,.08-.58.22-.87,1a1.58,1.58,0,0,0,.07,1.32,1.44,1.44,0,0,0,2.53-.47,1.56,1.56,0,0,0-.4-1.26c-.56-.63-1.18-.54-1.17-.63s.13-.1.4-.09a1.62,1.62,0,0,1,1,.46,1.9,1.9,0,0,1,.62,1.59,1.89,1.89,0,0,1-3.43.63,1.9,1.9,0,0,1,0-1.7,1.65,1.65,0,0,1,.8-.8C137.87,265.84,138,265.87,138,265.89Z" style="fill:#263238"></path><g style="opacity:0.30000000000000004"><path d="M159.34,195.2c-.36-2.91-1.13-5.76-1.32-8.69-.24-3.5.37-7-.32-10.49-2.38,4-2.92,8.77-2.93,13.4s.42,9.28-.24,13.86c-.45,3.14-1.47,6.91-1.85,10.06s.52,4.88,1.44,9.61C157.29,214,160.5,204.63,159.34,195.2Z"></path></g><path d="M153.79,187.76a37,37,0,0,1-4.11,32.7" style="fill:#A84034"></path><path d="M149.68,220.46c-.09-.06,1-1.64,2.32-4.42a38.89,38.89,0,0,0,1.94-5,42,42,0,0,0,1.38-6.45,42.87,42.87,0,0,0,.26-6.59,38.82,38.82,0,0,0-.63-5.35c-.59-3-1.26-4.82-1.16-4.86a6.34,6.34,0,0,1,.52,1.25c.15.41.32.91.48,1.5s.38,1.27.52,2a35.3,35.3,0,0,1,.75,5.41,36.27,36.27,0,0,1-1.66,13.2,35.91,35.91,0,0,1-2.07,5c-.33.71-.7,1.31-1,1.84a15.39,15.39,0,0,1-.85,1.34A6.53,6.53,0,0,1,149.68,220.46Z" style="fill:#263238"></path><path d="M104.12,236a9.91,9.91,0,0,1-1.92-1.55,46.79,46.79,0,0,1-7.63-9.14,9.64,9.64,0,0,1-1.19-2.18,14.37,14.37,0,0,1,1.49,2c.89,1.23,2.14,2.91,3.62,4.69s2.91,3.3,4,4.4A14.41,14.41,0,0,1,104.12,236Z" style="fill:#263238"></path><path d="M97.54,237.05a7.35,7.35,0,0,1-1-1.88,41.3,41.3,0,0,1-3-9.86,7.49,7.49,0,0,1-.21-2.13c.15,0,.73,3.17,1.9,7S97.68,237,97.54,237.05Z" style="fill:#263238"></path><path d="M129.7,218c0,.07-.61-.32-1.6-.71a9.35,9.35,0,0,0-8,.57c-.92.53-1.41,1-1.48.92a3.7,3.7,0,0,1,1.29-1.23,8.38,8.38,0,0,1,4.08-1.39,8.26,8.26,0,0,1,4.23.8A3.74,3.74,0,0,1,129.7,218Z" style="fill:#263238"></path><path d="M74.18,215.63s-7.35,8-6.79,13.58,3.16,17.86,10,17.49,13.11-11.44,14-20.22,0-29.44,0-29.44l-9.81,2.21Z" style="fill:#ffbe9d"></path><path d="M59.58,164.43c5.08,6.49,17.67,22.14,17.67,22.14l11.85-3a2.16,2.16,0,0,0,1.62-1.83h0a2.15,2.15,0,0,0-.45-1.6l-16.61-21a4.72,4.72,0,0,0-5.37-1.5l-7.59,2.85A2.55,2.55,0,0,0,59.58,164.43Z" style="fill:#263238"></path><path d="M89.46,180.91a9.89,9.89,0,0,1-1.14-1.09c-.71-.74-1.72-1.81-2.93-3.16-2.42-2.71-5.66-6.56-9-11-.83-1.11-1.63-2.2-2.39-3.27a8.54,8.54,0,0,0-2.48-2.64,3.7,3.7,0,0,0-3.12,0l-2.8,1-4.09,1.35a8.47,8.47,0,0,1-1.52.43,10.51,10.51,0,0,1,1.45-.62l4-1.51,2.79-1a7.08,7.08,0,0,1,1.66-.4,3.3,3.3,0,0,1,1.83.38,8.8,8.8,0,0,1,2.67,2.76l2.39,3.26c3.32,4.43,6.5,8.3,8.85,11.06,1.13,1.33,2.08,2.43,2.8,3.27A9.79,9.79,0,0,1,89.46,180.91Z" style="fill:#455a64"></path><path d="M66.31,162.25a1,1,0,1,1-.46,1.33,1,1,0,0,1,.46-1.33" style="fill:#fff"></path><path d="M76.47,176.44l-5.48.91-2,1.8a2.25,2.25,0,0,0-.76,2,5.32,5.32,0,0,0,1.24,2.66,15.73,15.73,0,0,0,2.38,2.38s-1.92,3.12,1.06,4.7c0,0-.2,3.23,2.93,3.56,0,0,.91,3.07,3.27,3.24l2.43,2.41-.74,1.47,10.87.34a63.49,63.49,0,0,0-.43-8.68,20.84,20.84,0,0,0-.85-3.45c.55-3.06-1.74-4.34-2.09-4.12,0,0,5.19-1.36,4.53-4.93l-5,1.28-9.13,1.9L84.56,180a4.65,4.65,0,0,0,.76-.9c.5-.79,1.24-2.22.61-3.06-.27-.35-7.47,2.66-7.47,2.66L74,182.81l-1.4-2S77.19,179.87,76.47,176.44Z" style="fill:#ffbe9d"></path><path d="M89,185.7c0,.16-1.93.43-4.24,1.11s-4.11,1.47-4.18,1.33a11.25,11.25,0,0,1,4-1.83A11.21,11.21,0,0,1,89,185.7Z" style="fill:#eb996e"></path><path d="M86.49,195.11a16.67,16.67,0,0,0,1.81-1.93l.19-.25.13.29a1.67,1.67,0,0,0,.89.84,1.31,1.31,0,0,0,1.31-.08.52.52,0,0,0,.18-.56l-.15-.9a12.12,12.12,0,0,0-.37-1.85,1.25,1.25,0,0,0-1.22-.87,6,6,0,0,0-1.66.31l-2.93.72a15,15,0,0,1-2.73.53,15.89,15.89,0,0,1,2.64-.89l2.88-.82a5.88,5.88,0,0,1,1.82-.36,1.9,1.9,0,0,1,1,.31,1.93,1.93,0,0,1,.66.89,12.69,12.69,0,0,1,.39,1.95c0,.31.09.62.14.92a1,1,0,0,1-.39,1,1.76,1.76,0,0,1-1.78.1,2.08,2.08,0,0,1-1-1.1l.31,0a7,7,0,0,1-1.46,1.37C86.74,195,86.51,195.14,86.49,195.11Z" style="fill:#eb996e"></path><path d="M76.88,180a24.2,24.2,0,0,1-2.44,3.19,23.33,23.33,0,0,1-2.55,3.1A12,12,0,0,1,74,182.89,11.6,11.6,0,0,1,76.88,180Z" style="fill:#eb996e"></path><path d="M79.14,183.77c0,.15-1.14.51-2,1.68a8.78,8.78,0,0,0-1,2.39c-.07,0-.17-.3-.15-.82a3.78,3.78,0,0,1,2.27-3.13C78.8,183.71,79.12,183.71,79.14,183.77Z" style="fill:#eb996e"></path><path d="M137.8,103.21c-.84-2.2-.51-4.65-.84-7-.72-5.13-4.85-9.25-9.63-11.26-4.45-1.86-9.88-1.46-15.24.26a20.49,20.49,0,0,0-9.59,6.23,16.1,16.1,0,0,0-3,14.47l26.26-3.79c2.45,2,5,4.11,7.95,5.25a5.4,5.4,0,0,0,2.74.44,2.45,2.45,0,0,0,2-1.68C138.75,105.14,138.17,104.17,137.8,103.21Z" style="fill:#263238"></path><path d="M121.48,83.64c5.75-1,10.8,1.25,15.64,4.5a28.78,28.78,0,0,1,10.59,13.58c2.21,5.73,2.77,14,1,19.91a17.86,17.86,0,0,1-11.26,12.1c-7.9,2.8-17,2.45-23.72-2.61s-10.5-13.43-10.81-21.81a27.75,27.75,0,0,1,4.41-16.47,21.11,21.11,0,0,1,14.1-9.2" style="fill:#263238"></path><path d="M112.35,146.17l.21,4.68,10.32,18.25,15-19.2.51-48a4.28,4.28,0,0,0-4-4.19l-22.91-4.89c-7.3-.49-11.8,8.64-12,16-.2,8.13-.14,18.06,1,24.07,2.39,12.09,11.77,13.29,11.77,13.29" style="fill:#ffbe9d"></path><path d="M102.82,118.89a1.55,1.55,0,0,0,1.56,1.52,1.5,1.5,0,0,0,1.56-1.47,1.57,1.57,0,0,0-1.56-1.51A1.49,1.49,0,0,0,102.82,118.89Z" style="fill:#263238"></path><path d="M101.88,113.5c.2.2,1.35-.72,3-.78s2.94.73,3.11.52-.12-.45-.68-.82a4.2,4.2,0,0,0-2.5-.67,4.11,4.11,0,0,0-2.4.87C101.94,113,101.78,113.41,101.88,113.5Z" style="fill:#263238"></path><path d="M118.05,118.6a1.56,1.56,0,0,0,1.57,1.52,1.49,1.49,0,0,0,1.55-1.46,1.55,1.55,0,0,0-1.56-1.52A1.49,1.49,0,0,0,118.05,118.6Z" style="fill:#263238"></path><path d="M117.82,113.11c.2.2,1.35-.72,3-.78s3,.74,3.12.52-.12-.45-.68-.82a4.2,4.2,0,0,0-2.5-.67,4.11,4.11,0,0,0-2.4.87C117.88,112.65,117.72,113,117.82,113.11Z" style="fill:#263238"></path><path d="M112.76,125.87a11.13,11.13,0,0,0-2.74-.39c-.43,0-.84-.1-.92-.39a2.13,2.13,0,0,1,.24-1.28l1.14-3.31c1.59-4.71,2.72-8.58,2.53-8.64s-1.63,3.7-3.22,8.42l-1.09,3.33a2.52,2.52,0,0,0-.16,1.69,1.11,1.11,0,0,0,.73.6,2.84,2.84,0,0,0,.73.07A10.47,10.47,0,0,0,112.76,125.87Z" style="fill:#263238"></path><path d="M112.35,146.17a33.91,33.91,0,0,0,16.13-5.35s-3.78,8.57-16,7.89Z" style="fill:#eb996e"></path><path d="M114.05,129.48a2.69,2.69,0,0,1,2.45-.84,2,2,0,0,1,1.55,1,2.28,2.28,0,0,1,.15,2.32,2,2,0,0,1-2.18.64,5.18,5.18,0,0,1-2-.94,1.35,1.35,0,0,1-.38-.68,1.8,1.8,0,0,1,.46-1.49" style="fill:#eb996e"></path><path d="M117.92,109.18c.18.45,1.85.17,3.82.34s3.6.64,3.84.22c.11-.2-.18-.62-.84-1a6.36,6.36,0,0,0-2.87-.89,6.43,6.43,0,0,0-3,.47C118.19,108.59,117.84,109,117.92,109.18Z" style="fill:#263238"></path><path d="M102.09,106.14c.31.37,1.45-.07,2.84-.14s2.58.16,2.83-.25c.11-.19-.09-.57-.61-.91a4.13,4.13,0,0,0-4.58.31C102.1,105.56,102,106,102.09,106.14Z" style="fill:#263238"></path><path d="M142,99.68c-2.37-7-12.73-16.51-20.08-15.86l-11.61,7.26a11.33,11.33,0,0,0,7.85,8.53c2.09.59,4.59.72,5.86,2.48s.61,4.47,1.82,6.33c1.67,2.58,6.11,2.37,7.39,5.17.55,1.22.3,2.69.88,3.91.77,1.61,4.93,3.6,6.63,3s1.64-3.48,2.17-5a8.07,8.07,0,0,0,.15-5.4C142.26,106.69,143.14,103,142,99.68Z" style="fill:#263238"></path><path d="M135.74,122.06c0-.91.94-3.08,1.83-3.26,2.37-.46,6.68-.43,7,5.64.37,8.29-8,6.94-8.06,6.71S135.85,125.19,135.74,122.06Z" style="fill:#ffbe9d"></path><path d="M138.86,127.89s.15.1.39.2a1.42,1.42,0,0,0,1.09,0c.86-.36,1.53-1.78,1.51-3.27a4.63,4.63,0,0,0-.5-2.05,1.64,1.64,0,0,0-1.13-1.06.73.73,0,0,0-.84.43c-.1.24,0,.4-.08.41s-.19-.13-.13-.47a.88.88,0,0,1,.3-.54,1.09,1.09,0,0,1,.79-.24,2,2,0,0,1,1.56,1.22,5,5,0,0,1,.61,2.29c0,1.67-.77,3.27-2,3.67a1.55,1.55,0,0,1-1.33-.16C138.88,128.09,138.83,127.91,138.86,127.89Z" style="fill:#eb996e"></path><path d="M149.52,110.72a7.24,7.24,0,0,0,.32-2.49A18.34,18.34,0,0,0,146,96.9a7.4,7.4,0,0,0-1.75-1.79c-.16.1,2.62,2.86,4.08,7.31A27.3,27.3,0,0,1,149.52,110.72Z" style="fill:#A84034"></path><path d="M112.73,88.58c-.77,3.37-5.9,7.69-8.16,10.32-4.3,5-5.11,5.74-5.08,20.85a35.77,35.77,0,0,1-3.45-15,18.1,18.1,0,0,1,4.81-11.88,14.1,14.1,0,0,1,11.88-4.28" style="fill:#263238"></path><path d="M146.23,99.57a6.88,6.88,0,0,1-1.4.35c-.46.1-1,.21-1.68.29s-1.41.22-2.25.26a40.21,40.21,0,0,1-5.87,0,45.21,45.21,0,0,1-7.12-1.09,43.89,43.89,0,0,1-6.82-2.32,39.43,39.43,0,0,1-5.19-2.76c-.73-.42-1.33-.88-1.87-1.26a16.23,16.23,0,0,1-1.36-1,9.47,9.47,0,0,1-1.09-1,8,8,0,0,1,1.21.8c.37.28.83.61,1.39,1s1.17.79,1.9,1.19a42.11,42.11,0,0,0,5.19,2.64A46.4,46.4,0,0,0,128,99a48.26,48.26,0,0,0,7,1.12,44,44,0,0,0,5.82.05c.83,0,1.58-.13,2.23-.18s1.22-.14,1.68-.21A9.37,9.37,0,0,1,146.23,99.57Z" style="fill:#455a64"></path><path d="M147.09,105.52a4,4,0,0,1-1,.23,22.77,22.77,0,0,1-2.67.34,33.25,33.25,0,0,1-17.28-3.41,23.65,23.65,0,0,1-2.35-1.32,3.71,3.71,0,0,1-.8-.59c0-.07,1.25.66,3.3,1.6a37.23,37.23,0,0,0,17.11,3.37C145.69,105.65,147.08,105.43,147.09,105.52Z" style="fill:#455a64"></path><path d="M149.19,105.72a5.35,5.35,0,0,1,.28,1.25c.13.82.26,2,.34,3.47a49.55,49.55,0,0,1,0,5.17,32.6,32.6,0,0,1-.85,6.28,16.68,16.68,0,0,1-6.43,9.39,16.3,16.3,0,0,1-3.08,1.65,5.17,5.17,0,0,1-1.21.41,7.64,7.64,0,0,1,1.13-.59,19.79,19.79,0,0,0,2.95-1.76,15.48,15.48,0,0,0,3.52-3.63,16.7,16.7,0,0,0,2.63-5.59,35.86,35.86,0,0,0,.88-6.19c.12-1.93.14-3.67.11-5.13s-.1-2.64-.18-3.45A7.17,7.17,0,0,1,149.19,105.72Z" style="fill:#455a64"></path><path d="M116.12,132.58a2.73,2.73,0,0,0,1.29-.31,1.6,1.6,0,0,0,.74-1.1,1.92,1.92,0,0,0-.44-1.56,2.25,2.25,0,0,0-1.49-.71,2.61,2.61,0,0,0-1.38.3c-.74.39-1,.87-1.12.82s.15-.6.93-1.14a2.72,2.72,0,0,1,1.59-.46,2.59,2.59,0,0,1,1.86.85,2.31,2.31,0,0,1,.52,2,1.9,1.9,0,0,1-1,1.33C116.68,133,116.07,132.62,116.12,132.58Z" style="fill:#263238"></path><path d="M167.27,200.86l4.46-9.51c.74-3,3.76-4,7.46-4.24l3.91-1.6s2.85-4.11,5.49-4a1,1,0,0,1,.92.7h0a.93.93,0,0,1-.11.81l-3.21,4.94-2.56,1.26s2.4.58,3.35-.31,4.16-3.43,4.16-3.43,2.45-4.41,5.63-4.08a.58.58,0,0,1,.46.85l-2.44,4.71s4.45-6.69,8.69-4.19l-4.7,5.11s6.82-3.87,9.54-.63l-17.26,7.13-9.95,1.95-3.48,9.44L174.57,204Z" style="fill:#ffbe9d"></path><path d="M177.61,213.21s.53,16.9-2.59,21.56-8.92,11-16.1,5.92l-4.49-17s7.31-8,8.64-11.3c3.31-8.19,8.66-21,8.66-21l9.52,4.24Z" style="fill:#ffbe9d"></path><path d="M164.15,210.84a13.19,13.19,0,0,1-1.08,2.14c-.7,1.29-1.64,3.09-2.57,5.13s-1.68,3.93-2.21,5.31a12.36,12.36,0,0,1-.91,2.21,9.78,9.78,0,0,1,.57-2.33,44.07,44.07,0,0,1,2.07-5.4,47,47,0,0,1,2.73-5.11A9.93,9.93,0,0,1,164.15,210.84Z" style="fill:#eb996e"></path><path d="M186.19,187.91a7.23,7.23,0,0,1-2.33,1.37,7.07,7.07,0,0,1-2.54.9,7.25,7.25,0,0,1,2.32-1.37A7.15,7.15,0,0,1,186.19,187.91Z" style="fill:#eb996e"></path><path d="M187.62,192.38c0-.07.45-.37,1.26-.72l1.44-.59.83-.35a1.7,1.7,0,0,0,.71-.51c.87-1,1.58-2,2.15-2.67s1-1.09,1.05-1a3.41,3.41,0,0,1-.19.34l-.56.88a26.06,26.06,0,0,1-2.07,2.8,2.92,2.92,0,0,1-.4.38,2.47,2.47,0,0,1-.48.25l-.87.33c-.55.2-1.06.35-1.48.49A5.93,5.93,0,0,1,187.62,192.38Z" style="fill:#eb996e"></path></g></svg>